<svg xmlns="http://www.w3.org/2000/svg" width="96" height="96" fill="none" viewBox="0 0 96 96" id="gym">
  <path fill="url(#paint0_linear_781_2866)" fill-rule="evenodd" d="M83.3524 41.2183C84.3092 40.8532 85.2062 40.2852 85.9772 39.5142C88.9061 36.5853 88.9061 31.8366 85.9772 28.9076L82.0889 25.0194L85.5985 21.5098C88.5275 18.5809 88.5275 13.8322 85.5985 10.9032C82.6696 7.97429 77.9208 7.9743 74.9919 10.9032L71.4823 14.4128L67.5924 10.5229C64.6635 7.59394 59.9147 7.59393 56.9858 10.5229C56.2148 11.2939 55.6467 12.191 55.2816 13.1478C52.5587 12.0111 49.3015 12.5507 47.0858 14.7664C44.1568 17.6953 44.1568 22.4441 47.0858 25.373L53.804 32.0912L44.1027 41.7925L31.1759 54.7192L24.4582 48.0015C21.5293 45.0726 16.7805 45.0726 13.8516 48.0015C11.636 50.2172 11.0964 53.4741 12.2328 56.197C11.2765 56.5621 10.3799 57.1299 9.6093 57.9006C6.68036 60.8295 6.68037 65.5783 9.6093 68.5072L13.4986 72.3965L11.4016 74.4936C8.47264 77.4225 8.47264 82.1713 11.4016 85.1002C14.3305 88.0291 19.0792 88.0291 22.0082 85.1002L24.1052 83.0031L27.9941 86.892C30.923 89.8209 35.6717 89.8209 38.6007 86.892C39.3713 86.1213 39.9392 85.2248 40.3043 84.2685C43.0271 85.405 46.2842 84.8654 48.4998 82.6498C51.4288 79.7208 51.4288 74.9721 48.4998 72.0432L41.7825 65.3258L64.4106 42.6978L71.1274 49.4146C74.0563 52.3436 78.8051 52.3436 81.734 49.4146C83.9499 47.1988 84.4893 43.9413 83.3524 41.2183ZM60.875 39.1623L57.3395 35.6267L47.6382 45.328L34.7114 58.2548L38.247 61.7903L60.875 39.1623ZM75.0179 17.9483L78.5275 14.4388C79.5038 13.4624 81.0867 13.4624 82.063 14.4388C83.0393 15.4151 83.0393 16.998 82.063 17.9743L78.5534 21.4839L76.4584 19.3889L75.0179 17.9483ZM78.9061 35.9787C79.8824 36.955 81.4653 36.955 82.4416 35.9787C83.4179 35.0024 83.4179 33.4195 82.4416 32.4432L72.9229 22.9244L64.0569 14.0584C63.0805 13.0821 61.4976 13.0821 60.5213 14.0584C59.545 15.0347 59.545 16.6176 60.5213 17.5939L78.9061 35.9787ZM13.1448 61.4361C14.1087 60.4723 15.6637 60.46 16.6426 61.3991L25.4735 70.2301L35.1021 79.8587C36.0413 80.8376 36.029 82.3926 35.0651 83.3564C34.0888 84.3327 32.5059 84.3327 31.5296 83.3564L22.0109 73.8377L13.1448 64.9716C12.1685 63.9953 12.1685 62.4124 13.1448 61.4361ZM41.4288 79.1142L38.6649 76.3503C38.6436 76.3286 38.6222 76.3069 38.6007 76.2854L20.2159 57.9006C20.1943 57.879 20.1726 57.8575 20.1508 57.8363L17.3871 55.0726C16.4108 54.0963 16.4108 52.5134 17.3871 51.5371C18.3635 50.5608 19.9464 50.5608 20.9227 51.5371L44.9643 75.5787C45.9406 76.555 45.9406 78.1379 44.9643 79.1142C43.988 80.0905 42.4051 80.0905 41.4288 79.1142ZM18.4726 81.5647L20.5697 79.4676L18.4753 77.3732L17.0342 75.932L14.9371 78.0291C13.9608 79.0054 13.9608 80.5883 14.9371 81.5647C15.9134 82.541 17.4963 82.541 18.4726 81.5647ZM74.6629 45.8791C75.6392 46.8554 77.2222 46.8554 78.1985 45.8791C79.1748 44.9028 79.1748 43.3199 78.1985 42.3436L65.7788 29.9239L54.1568 18.3019C53.1805 17.3256 51.5976 17.3256 50.6213 18.3019C49.645 19.2782 49.645 20.8612 50.6213 21.8375L74.6629 45.8791Z" clip-rule="evenodd"></path>
  <defs>
    <linearGradient id="paint0_linear_781_2866" x1="47.793" x2="47.793" y1="8.326" y2="89.089" gradientUnits="userSpaceOnUse">
      <stop stop-color="#FFB119"></stop>
      <stop offset="1" stop-color="#FF813B"></stop>
    </linearGradient>
  </defs>
</svg>
